<svg xmlns="http://www.w3.org/2000/svg" viewBox="0 0 232.58 58.96"><defs><style>.cls-1{fill:#05357f;}.cls-2,.cls-3{fill:none;}.cls-2{stroke:#7e7e80;stroke-miterlimit:10;stroke-width:0.49px;stroke-dasharray:1.64;opacity:0.8;}.cls-3{stroke:#05357f;stroke-linecap:round;stroke-linejoin:round;stroke-width:2.45px;}</style></defs><title>자산 10</title><g id="레이어_2" data-name="레이어 2"><g id="레이어_1-2" data-name="레이어 1"><path class="cls-1" d="M72.47,48.26V11.18a4,4,0,0,1,4-4H103.4A3.57,3.57,0,0,1,107,10.7v1.8a3.57,3.57,0,0,1-3.57,3.57H83.21v9.78H95.3A3.15,3.15,0,0,1,98.45,29v2.65a3.15,3.15,0,0,1-3.15,3.15H83.21V48.26a3.57,3.57,0,0,1-3.57,3.57H76A3.57,3.57,0,0,1,72.47,48.26Z"/><path class="cls-1" d="M109.71,48.17V10.71a3.58,3.58,0,0,1,3.58-3.58h3.57a3.58,3.58,0,0,1,3.59,3.58V42.83h18.82a3.58,3.58,0,0,1,3.58,3.58v1.84a3.58,3.58,0,0,1-3.58,3.58H113.36A3.65,3.65,0,0,1,109.71,48.17Z"/><path class="cls-1" d="M146.38,47.33,158.05,9.71a3.65,3.65,0,0,1,3.5-2.58H169a3.67,3.67,0,0,1,3.51,2.58l11.66,37.62a3.47,3.47,0,0,1-3.31,4.5H177a3.47,3.47,0,0,1-3.36-2.63l-4.92-19.69q-.9-3.36-1.77-7.14t-1.77-7.2h-.24q-.78,3.48-1.68,7.23t-1.74,7.11L156.56,49.2a3.47,3.47,0,0,1-3.36,2.63h-3.51A3.47,3.47,0,0,1,146.38,47.33Zm8-5.76V33.29H176v8.28Z"/><path class="cls-1" d="M190.23,48.33V10.69a3.56,3.56,0,0,1,3.56-3.56h5.59a3.47,3.47,0,0,1,3.26,2.27l6.25,17c.44,1.28.85,2.61,1.26,4s.8,2.75,1.2,4.11h.3q.65-2,1.26-4.11t1.2-4l6-17a3.46,3.46,0,0,1,3.27-2.31H229a3.56,3.56,0,0,1,3.56,3.56V48.33a3.5,3.5,0,0,1-3.49,3.5H226.3a3.5,3.5,0,0,1-3.49-3.5V36.53c0-1.48.07-3.14.24-5s.35-3.69.57-5.55.42-3.51.62-4.95H224l-3.72,10.68L215.1,45.67a3.64,3.64,0,0,1-3.41,2.38h-.82a3.62,3.62,0,0,1-3.4-2.37l-5.19-13.95-3.59-10.68h-.24c.2,1.44.39,3.09.6,4.95s.37,3.71.53,5.55.25,3.5.25,5v11.8a3.5,3.5,0,0,1-3.5,3.5h-2.61A3.5,3.5,0,0,1,190.23,48.33Z"/><path class="cls-2" d="M26.05,57.69,1.58,43.56V15.31L26.05,1.18,50.51,15.31V43.56ZM50.51,43.52,1.58,15.35m48.93,0L1.58,43.52M25.87,1.27V29.43m.18,28.34V28.91"/><path class="cls-3" d="M1.4,15.31,25.69,1.23l25.17,13.9M16.17,6.75l14.28,9.09M1.23,15.48V43.3L25.87,29.21,1.23,43.3l16.19,9.5m8.45-10.53L15,36.25m35.55,7,.35-28.17-13,21.12-12-7m0,0V57.73"/></g></g></svg>