<svg xmlns="http://www.w3.org/2000/svg" viewBox="0 0 232.41 58.96"><defs><style>.cls-1,.cls-2{fill:none;}.cls-1{stroke:#cbcbcb;stroke-miterlimit:10;stroke-width:0.49px;stroke-dasharray:1.64;opacity:0.8;}.cls-2{stroke:#f1f1f1;stroke-linecap:round;stroke-linejoin:round;stroke-width:2.45px;}.cls-3{fill:#fff;}</style></defs><title>자산 11</title><g id="레이어_2" data-name="레이어 2"><g id="레이어_1-2" data-name="레이어 1"><path class="cls-1" d="M26.05,57.69,1.58,43.56V15.31L26.05,1.18,50.51,15.31V43.56ZM50.51,43.52,1.58,15.35m48.93,0L1.58,43.52M25.87,1.27V29.43m.18,28.34V28.91"/><path class="cls-2" d="M1.4,15.31,25.69,1.23l25.17,13.9M16.17,6.75l14.28,9.09M1.23,15.48V43.29L25.87,29.21,1.23,43.29,17.42,52.8m8.45-10.53L15,36.25m35.55,7,.35-28.16-13,21.12-12-7m0,0V57.73"/><path class="cls-3" d="M72.29,48.26V11.18a4.05,4.05,0,0,1,4.06-4h26.87a3.57,3.57,0,0,1,3.57,3.57v1.8a3.57,3.57,0,0,1-3.57,3.57H83v9.78h12.1A3.15,3.15,0,0,1,98.27,29v2.65a3.15,3.15,0,0,1-3.14,3.15H83V48.26a3.57,3.57,0,0,1-3.57,3.57h-3.6A3.57,3.57,0,0,1,72.29,48.26Z"/><path class="cls-3" d="M109.53,48.17V10.71a3.58,3.58,0,0,1,3.59-3.58h3.56a3.58,3.58,0,0,1,3.59,3.58V42.83h18.82a3.58,3.58,0,0,1,3.58,3.58v1.84a3.58,3.58,0,0,1-3.58,3.58h-25.9A3.66,3.66,0,0,1,109.53,48.17Z"/><path class="cls-3" d="M146.2,47.33,157.87,9.71a3.67,3.67,0,0,1,3.5-2.58h7.44a3.67,3.67,0,0,1,3.5,2.58L184,47.33a3.48,3.48,0,0,1-3.32,4.5H176.8a3.49,3.49,0,0,1-3.37-2.63l-4.92-19.69q-.9-3.36-1.77-7.14T165,15.17h-.24q-.78,3.48-1.68,7.23t-1.74,7.11L156.39,49.2A3.49,3.49,0,0,1,153,51.83h-3.5A3.48,3.48,0,0,1,146.2,47.33Zm8-5.76V33.29h21.6v8.28Z"/><path class="cls-3" d="M190.05,48.33V10.69a3.56,3.56,0,0,1,3.56-3.56h5.6a3.47,3.47,0,0,1,3.25,2.27l6.25,17q.66,1.92,1.26,4l1.2,4.11h.3q.66-2,1.26-4.11t1.2-4l6-17a3.46,3.46,0,0,1,3.27-2.31h5.63a3.56,3.56,0,0,1,3.56,3.56V48.33a3.5,3.5,0,0,1-3.5,3.5h-2.78a3.5,3.5,0,0,1-3.5-3.5V36.53q0-2.22.24-5t.57-5.55q.33-2.79.63-4.95h-.3l-3.72,10.68-5.13,13.94a3.62,3.62,0,0,1-3.41,2.38h-.81a3.65,3.65,0,0,1-3.41-2.37l-5.18-13.95-3.6-10.68h-.24q.3,2.16.6,4.95t.54,5.55q.24,2.76.24,5v11.8a3.5,3.5,0,0,1-3.5,3.5h-2.6A3.5,3.5,0,0,1,190.05,48.33Z"/></g></g></svg>